<svg id="Icon_Set" enable-background="new 0 0 256 256" height="512" viewBox="0 0 256 256" width="512" xmlns="http://www.w3.org/2000/svg"><path d="m89.368 142.874v23.508c0 2.761-2.239 5-5 5h-70.553c-2.761 0-5-2.239-5-5v-23.508c0-16.585 10.126-30.709 23.665-36.682 5.292-2.409 10.913-3.588 16.605-3.588 6.025 0 11.477 1.287 16.617 3.588 14.349 6.534 23.666 20.758 23.666 36.682z" fill="#5fcdff"/><path d="m89.371 142.869v23.51c0 2.76-2.24 5-5 5h-15c2.76 0 5-2.24 5-5v-23.51c0-15.901-9.308-30.162-23.67-36.68-1.57-.7-3.19-1.32-4.86-1.84-1.39-.43-2.81-.78-4.25-1.05 2.43-.46 4.93-.7 7.5-.7 6.056 0 11.455 1.292 16.61 3.59 14.133 6.413 23.67 20.557 23.67 36.68z" fill="#30b6ff"/><path d="m56.591 103.299c-1.45.27-2.87.62-4.26 1.05-1.66.51-3.28 1.13-4.85 1.84-13.247 5.796-23.67 19.825-23.67 36.68v23.51c0 2.76 2.24 5 5 5h-15c-2.76 0-5-2.24-5-5v-23.51c0-16.608 10.222-30.796 23.67-36.68 5.123-2.317 10.646-3.59 16.61-3.59 2.56 0 5.07.24 7.5.7z" fill="#73d7f9"/><path d="m246.455 117.36c-.737-1.426-1.555-2.744-2.421-3.955 2.069-3.133 3.405-8.006 3.405-13.495 0-9.455-3.948-17.121-8.818-17.121v-9.85c0-10.574-4.278-20.134-11.209-27.054-6.931-6.931-16.491-11.209-27.065-11.209-21.126 0-38.263 17.126-38.263 38.263v9.85c-4.87 0-8.818 7.665-8.818 17.121 0 7.94 2.788 14.598 6.564 16.534-1.56 1.249-3.097 2.741-4.526 4.46-6.045 7.271-7.91 15.689-4.165 18.802 2.434 2.024 6.64 1.295 10.946-1.451v2.886h76.537v-6.129c2.846 2.03 5.692 2.727 7.86 1.606 4.325-2.235 4.313-10.857-.027-19.258z" fill="#b76c6c"/><path d="m65.703 106.192c-7.897 13.681-12.333 21.359-12.314 21.326-1.913 3.312-6.693 3.31-8.604-.002-8.212-14.233-5.523-9.575-12.305-21.324 5.292-2.409 10.913-3.588 16.605-3.588 6.026-.001 11.478 1.286 16.618 3.588z" fill="#ffbb98"/><path d="m57.451 120.479-4.06 7.04c-1.91 3.31-6.69 3.31-8.61 0-8.21-14.241-5.523-9.581-12.3-21.33 5.146-2.327 10.553-3.551 16.35-3.58-.46.18-.91.38-1.35.58l5.52 9.57z" fill="#ffcaa6"/><path d="m207.851 35.419c-17.54 3.48-30.77 18.95-30.77 37.52v9.85c-4.87 0-8.82 7.67-8.82 17.12 0 7.94 2.79 14.6 6.57 16.54-1.56 1.24-3.1 2.74-4.53 4.46-6.04 7.27-7.91 15.68-4.16 18.8 2.43 2.02 6.64 1.29 10.94-1.45v2.88h-15v-2.88c-4.3 2.74-8.51 3.47-10.94 1.45-3.75-3.12-1.88-11.53 4.16-18.8 1.43-1.72 2.97-3.22 4.53-4.46-3.78-1.94-6.57-8.6-6.57-16.54 0-9.45 3.95-17.12 8.82-17.12v-9.85c0-21.14 17.14-38.26 38.27-38.26 2.57 0 5.08.25 7.5.74z" fill="#c98585"/><path d="m246.481 136.619c-2.17 1.12-5.01.42-7.86-1.61v6.13h-15v-6.13c2.85 2.03 5.69 2.73 7.86 1.61 4.33-2.24 4.31-10.86-.03-19.26-.73-1.42-1.55-2.74-2.42-3.95 2.07-3.14 3.41-8.01 3.41-13.5 0-9.45-3.95-17.12-8.82-17.12v-9.85c0-10.57-4.28-20.13-11.21-27.05-5.25-5.25-12-8.97-19.56-10.47 2.43-.49 4.93-.74 7.5-.74 10.57 0 20.13 4.28 27.06 11.21 6.93 6.92 11.21 16.48 11.21 27.05v9.85c4.87 0 8.82 7.67 8.82 17.12 0 5.49-1.34 10.36-3.41 13.5.87 1.21 1.69 2.53 2.42 3.95 4.34 8.4 4.36 17.02.03 19.26z" fill="#965959"/><path d="m238.62 144.295v22.087c0 2.761-2.239 5-5 5h-66.537c-2.761 0-5-2.239-5-5v-22.087c0-10.396 4.145-19.822 10.886-26.708 4.324-4.464 9.953-7.999 16.212-9.894 3.532-1.081 7.276-1.66 11.165-1.66s7.632.579 11.165 1.66c5.777 1.778 11.295 4.955 15.889 9.549 7.229 7.228 11.22 16.897 11.22 27.053z" fill="#5fcdff"/><path d="m227.4 117.241c-5.181 10.173-15.744 17.126-27.934 17.126-11.711 0-21.917-6.418-27.299-15.922.256-.29.524-.579.802-.858 4.324-4.464 9.953-7.999 16.212-9.894 3.532-1.081 7.276-1.66 11.165-1.66s7.632.579 11.165 1.66c5.777 1.777 11.295 4.954 15.889 9.548z" fill="#ffbb98"/><path d="m207.851 106.769c-1.25.24-2.47.55-3.67.92-1.58.48-3.12 1.07-4.61 1.75-12.852 5.75-22.49 19.004-22.49 34.86v22.08c0 2.76 2.24 5 5 5h-15c-2.76 0-5-2.24-5-5v-22.08c0-10.4 4.15-19.83 10.89-26.71 4.416-4.577 10.12-8.05 16.21-9.9 3.53-1.08 7.28-1.66 11.17-1.66 2.57 0 5.08.25 7.5.74z" fill="#73d7f9"/><path d="m238.621 144.299v22.08c0 2.76-2.24 5-5 5h-15c2.76 0 5-2.24 5-5v-22.08c0-9.95-3.81-19.02-10.04-25.83-.38-.41-.78-.83-1.18-1.23-3.122-3.122-6.899-5.789-11.27-7.8-1.49-.67-3.03-1.26-4.62-1.75-1.19-.37-2.42-.67-3.66-.92 2.42-.49 4.93-.74 7.5-.74 3.88 0 7.63.58 11.16 1.66 6.143 1.893 11.587 5.247 15.89 9.55 6.972 6.972 11.22 16.556 11.22 27.06z" fill="#30b6ff"/><path d="m227.401 117.239c-5.18 10.18-15.74 17.13-27.93 17.13-2.59 0-5.1-.31-7.5-.91 8.93-2.18 16.35-8.2 20.43-16.22-3.122-3.122-6.899-5.789-11.27-7.8-1.49-.67-3.03-1.26-4.62-1.75-1.19-.37-2.42-.67-3.66-.92 2.42-.49 4.93-.74 7.5-.74 3.88 0 7.63.58 11.16 1.66 6.143 1.893 11.587 5.247 15.89 9.55z" fill="#ffaa80"/><path d="m206.971 133.459c-2.4.6-4.91.91-7.5.91-11.72 0-21.92-6.42-27.3-15.92.25-.29.52-.58.8-.86 4.416-4.577 10.12-8.05 16.21-9.9 3.53-1.08 7.28-1.66 11.17-1.66 2.57 0 5.08.25 7.5.74-1.25.24-2.47.55-3.67.92-1.58.48-3.12 1.07-4.61 1.75-4.974 2.225-9.678 5.853-12.4 9.01 4.19 7.4 11.31 12.94 19.8 15.01z" fill="#ffcaa6"/><circle cx="200.35" cy="80.531" fill="#ffbb98" r="28.891"/><path d="m229.241 80.529c0 15.96-12.93 28.89-28.89 28.89-2.6 0-5.11-.34-7.5-.99 12.32-3.3 21.39-14.54 21.39-27.9s-9.07-24.6-21.39-27.9c2.39-.65 4.9-.99 7.5-.99 15.96 0 28.89 12.94 28.89 28.89z" fill="#ffaa80"/><path d="m207.851 108.429c-2.39.65-4.9.99-7.5.99-15.96 0-28.89-12.93-28.89-28.89 0-15.95 12.93-28.89 28.89-28.89 2.6 0 5.11.34 7.5.99-12.32 3.3-21.39 14.54-21.39 27.9s9.07 24.6 21.39 27.9z" fill="#ffcaa6"/><path d="m227.411 45.886c-6.931-6.931-16.491-11.209-27.065-11.209-6.245 0-12.136 1.506-17.344 4.161.208-2.716-.508-5.078-2.245-6.532-3.819-3.197-11.078-.816-16.213 5.319-3.671 4.385-5.249 9.494-4.463 13.223-3.413 1.466-5.936 6.568-5.936 12.656 0 7.231 3.554 13.092 7.939 13.092h36.837c2.507 0 4.936-.735 7.031-2.061 2.106-1.326 3.9-3.254 5.159-5.638l4.056-7.699 4.045 7.699c2.518 4.769 7.164 7.699 12.19 7.699h7.22v-3.655c-.002-10.576-4.28-20.136-11.211-27.055z" fill="#b76c6c"/><path d="m238.621 72.939v3.66h-7.22c-2.82 0-5.51-.92-7.78-2.57v-1.09c0-10.57-4.28-20.13-11.21-27.05-5.25-5.25-12-8.98-19.57-10.47 2.43-.49 4.94-.74 7.51-.74 10.57 0 20.13 4.28 27.06 11.21 6.93 6.92 11.21 16.48 11.21 27.05z" fill="#965959"/><path d="m182.471 34.709c-1.03.84-2.01 1.82-2.93 2.91-3.67 4.39-5.25 9.5-4.46 13.23-3.41 1.46-5.94 6.57-5.94 12.65 0 7.23 3.56 13.1 7.94 13.1h-15c-4.38 0-7.94-5.87-7.94-13.1 0-6.08 2.53-11.19 5.94-12.65-.79-3.73.79-8.84 4.46-13.23 5.14-6.13 12.4-8.51 16.22-5.31.76.64 1.33 1.46 1.71 2.4z" fill="#c98585"/><g fill="#ffbb98"><path d="m21.34 88.191c-1.466.844-3.178 1.325-5.007 1.325-5.547 0-10.05-4.503-10.05-10.05 0-5.559 4.503-10.062 10.05-10.062 1.02 0 2.005.152 2.932.434-.387 1.923-.586 3.893-.586 5.922-.001 4.433.949 8.631 2.661 12.431z"/><path d="m91.89 79.466c0 5.547-4.491 10.05-10.05 10.05-1.818 0-3.53-.493-5.007-1.337 1.712-3.788 2.662-7.998 2.662-12.419 0-2.029-.199-3.999-.586-5.922.926-.281 1.912-.434 2.932-.434 5.557 0 10.049 4.503 10.049 10.062z"/><circle cx="49.09" cy="75.764" r="30.407"/></g><path d="m79.501 75.759c0 16.8-13.62 30.41-30.41 30.41-2.59 0-5.1-.32-7.5-.94 13.16-3.33 22.91-15.26 22.91-29.47 0-14.2-9.75-26.13-22.91-29.46 2.4-.62 4.91-.94 7.5-.94 16.79 0 30.41 13.61 30.41 30.4z" fill="#ffaa80"/><path d="m56.591 105.229c-2.4.62-4.91.94-7.5.94-16.79 0-30.41-13.61-30.41-30.41 0-16.79 13.62-30.4 30.41-30.4 2.59 0 5.1.32 7.5.94-13.16 3.33-22.91 15.26-22.91 29.46 0 14.21 9.75 26.14 22.91 29.47z" fill="#ffcaa6"/><path d="m8.815 67.774v3.846h7.599c5.289 0 10.179-3.084 12.829-8.103l4.257-8.103 4.269 8.103c1.325 2.51 3.213 4.538 5.43 5.934 2.205 1.396 4.761 2.17 7.4 2.17h38.769v-3.846c0-21.777-17.286-39.508-38.875-40.247-.457-.023-.926-.023-1.396-.023-.469 0-.938 0-1.396.023-10.566.364-20.1 4.785-27.089 11.774-7.293 7.281-11.797 17.343-11.797 28.472z" fill="#87828e"/><path d="m89.371 67.779v3.84h-15v-3.84c0-19.69-14.12-36.06-32.78-39.57 1.99-.38 4.03-.61 6.11-.68.46-.03.93-.03 1.4-.03s.93 0 1.39.03c21.59.74 38.88 18.47 38.88 40.25z" fill="#796e84"/><path d="m56.591 28.209c-8.11 1.52-15.37 5.48-20.98 11.09-7.29 7.28-11.8 17.35-11.8 28.48v1.67c-2.21 1.4-4.76 2.17-7.4 2.17h-7.6v-3.84c0-11.13 4.51-21.2 11.8-28.48 6.99-6.99 16.53-11.41 27.09-11.77.46-.03.93-.03 1.4-.03s.93 0 1.39.03c2.08.07 4.11.3 6.1.68z" fill="#a4a4a5"/><path d="m80.182 140.578c-11.632 11.632-11.632 30.492 0 42.125.769.769 44.642 44.642 44.333 44.333 1.953 1.953 5.118 1.953 7.071 0 1.185-1.185 45.333-45.333 44.333-44.333 11.632-11.632 11.632-30.492 0-42.125-11.632-11.632-30.492-11.632-42.125 0l-5.744 5.744-5.744-5.744c-11.632-11.633-30.492-11.633-42.124 0z" fill="#ff4a73"/><path d="m175.921 182.699c-8.102 8.102-2.399 2.398-44.33 44.34-1.96 1.95-5.12 1.95-7.08 0l-3.96-3.96c40.026-40.038 32.846-32.856 40.37-40.38 11.63-11.63 11.63-30.49 0-42.12-3.89-3.89-8.59-6.48-13.56-7.76 2.46-.64 4.98-.96 7.5-.96 7.62 0 15.25 2.91 21.06 8.72 11.63 11.63 11.63 30.49 0 42.12z" fill="#ea2a6a"/><path d="m135.551 223.079-3.96 3.96c-1.96 1.95-5.12 1.95-7.08 0-8.65-8.652-34.717-34.727-44.33-44.34-11.63-11.63-11.63-30.49 0-42.12 7.74-7.74 18.68-10.33 28.57-7.76-4.97 1.28-9.68 3.87-13.57 7.76-11.63 11.63-11.63 30.49 0 42.12 7.537 7.537.321.319 40.37 40.38z" fill="#f973a3"/><path d="m248.724 113.236c5.164-10.889 2.935-28.904-6.09-33.46 0-43.896-34.13-54.572-56.18-46.73-.1.03-.2.06-.3.1-3.454-8.523-15.792-8.681-24.66 1.93-3.56 4.25-5.57 9.29-5.59 13.75-3.52 2.99-5.75 8.49-5.75 14.69 0 7.57 3.27 13.85 7.94 16.15v.11c-10.05 5.073-11.632 26.838-4.16 36.69-3.352 3.525-6.255 7.954-7.73 12.52-5.71 1.5-10.94 4.5-15.22 8.78l-2.92 2.92-2.92-2.92c-6.38-6.38-14.86-9.9-23.89-9.9-3.44 0-6.8.51-9.99 1.5-3.46-10.793-10.956-20.089-21.88-25.82 3.79-2.76 7-6.29 9.39-10.36 1.01.23 2.04.35 3.08.35 7.75 0 14.05-6.31 14.05-14.05 0-2.98-.93-5.75-2.52-8.02v-3.67c0-26.021-21.961-45.546-45.81-44.25-21.913.76-42.75 17.204-42.75 47.9-7.266 10.308 2.001 24.611 14.61 21.74 2.39 4.06 5.59 7.59 9.38 10.36-13.674 6.835-23.99 21.794-23.99 39.34v23.51c0 4.97 4.04 9 9 9h56.58c3.33 7.586 3.163 6.353 51.3 54.49 3.504 3.504 9.213 3.507 12.72 0 48.084-48.084 47.983-46.926 51.32-54.49h47.89c4.96 0 9-4.03 9-9 0-.18 0 2.325 0-25.24v-.1c5.511.873 11.1-2.839 11.1-11.74-.026-5.505-2.104-11.279-5.01-16.08zm-8.06 18.36c-3.499-11.191-11.567-20.056-20.65-24.69 8.01-5.99 13.22-15.54 13.24-26.29h1.38v2.19c0 2.21 1.79 4 4 4 3.737 0 7.54 16.108 2.08 24.41-.92 1.38-.88 3.18.08 4.53 3.053 4.289 4.926 9.497 4.94 13.58 0 2.35-.64 3.53-1.08 3.76-.43.22-1.78.06-3.7-1.31-.1-.07-.19-.13-.29-.18zm-6.03 34.8c0 .55-.45 1-1 1h-45.47c2.649-15.091-5.358-30.204-19.33-36.51.84-1.99 1.88-3.9 3.11-5.7 4.7 5.84 11.14 10.03 18.32 11.97 6.176 1.685 12.627 1.596 18.5 0 7.67-2.07 14.44-6.68 19.18-13.16 4.742 6.405 6.69 13.39 6.69 21.16zm-61.53 13.49-44.33 44.34c-.39.39-1.03.39-1.42 0l-44.33-44.34c-10.052-10.051-10.053-26.407 0-36.46 14.175-14.175 28.313-8.157 42.21 5.74 1.56 1.56 4.1 1.56 5.66 0 11.665-11.665 24.782-19.398 39.61-8.01 12.305 9.331 13.685 27.645 2.6 38.73zm-159.28-12.49c-.55 0-1-.45-1-1v-23.51c0-13.455 7.362-25.189 18.11-31.38l10.4 18.03c3.457 5.976 12.084 5.977 15.53 0l10.41-18.02c7.743 4.46 13.92 11.917 16.64 21.13-11.815 7.059-18.339 20.767-15.93 34.75zm8.9-92.93c4.2-1.61 7.81-4.79 10.07-9.07l.72-1.37.73 1.38c3.242 6.125 9.386 10.23 16.37 10.23h24.89v.14c0 14.808-12.072 26.41-26.4 26.41-14.881 0-27.077-12.399-26.38-27.72zm-6.63 11.06c-5.022-.203-7.574-6.107-4.41-9.89h3.01c0 3.241.344 6.024 1.4 9.89zm69.29-17.89c-50.772 0 .182 0-34.77 0-7.552 0-9.848-7.029-13.56-14.07-1.535-2.899-5.608-2.794-7.08 0-5.784 11.022-5.974 14.07-17.14 14.07 0-19.193 15.295-35.417 35.09-36.1 19.655-1.009 37.46 15.188 37.46 36.1zm-3.28 17.89c.895-3.006 1.41-6.349 1.41-9.89h3c3.171 3.791.603 9.687-4.41 9.89zm-22.32 22.96-9.84 17.05c-.391.651-1.312.639-1.68 0l-9.84-17.05c6.824 2.234 14.332 2.301 21.36 0zm102.31-21.68c4.439 0 4-4.77 4-6.19h1.38c.02 10.75 5.22 20.3 13.23 26.29-.07.03-.15.07-.22.11-8.847 4.725-15.683 12.43-19.31 21.44-1.89-.36-3.82-.56-5.78-.58 1.78-3.274 4.293-6.161 6.95-8.29 2.231-1.789 1.937-5.339-.68-6.68-6.712-3.45-4.775-26.1.43-26.1zm16.11-51.42c1.466 1.215.24 3.574 1.35 5.46 1.045 1.846 3.342 2.524 5.22 1.6.02-.01.04-.02.06-.03 22.33-11.467 49.347 4.388 49.8 30.2-8.365 0-8.801.29-15.91-13.26-1.496-2.821-5.536-2.878-7.08-.01l-4.06 7.7c-1.737 3.283-4.971 5.57-8.65 5.57-51.03 0 13.288 0-36.84 0-1.419 0-3.94-3.531-3.94-9.1 0-7.623 3.45-8.718 4.45-9.54.82-.65 1.34-1.61 1.46-2.65.144-1.209-1.422-5.17 3.56-11.12 3.969-4.731 8.949-6.182 10.58-4.82zm32.27 67.89c-6.405 2.881-13.812 2.882-20.22 0-8.69-3.86-14.75-12.56-14.78-22.66h23.46c6.548 0 12.537-3.8 15.73-9.84l.51-.97.51.97c2.14 4.07 5.56 7.1 9.54 8.67.542 9.762-5.139 19.555-14.75 23.83zm11.87 14.77c-10.497 16.06-33.837 16.481-45.07.97 1.439-1.439 6.267-5.304 12.55-7.31 6.579 2.226 13.981 2.384 21.06.01 4.063 1.287 7.949 3.404 11.46 6.33z" fill="#5f266d"/><path d="m154.634 157.606-31.89 25.99c-.38.31-.92.29-1.28-.04l-13.13-12.35c-3.85-3.635-9.338 2.201-5.48 5.82l13.13 12.35c3.281 3.071 8.322 3.253 11.81.42 33.132-26.998 29.62-24.138 31.9-25.99 4.13-3.382-1.023-9.478-5.06-6.2z" fill="#5f266d"/></svg>